# xmcd CD database file
#
# Track frame offsets:
#	300
#	20294
#	38689
#	51946
#	66110
#	80364
#	93506
#	108383
#	124611
#	147174
#	160264
#	186745
#	206896
#	230041
#
# Disc length: 3244 seconds
#
# Revision: 0
# Processed by: cddbd v1.5.1PL0 Copyright (c) Steve Scherf et al.
# Submitted via: Feurio! 1.67 - http://www.feurio.com
#
DISCID=c70ca80e
DTITLE=Various Artist - New Orleans Festival, Innsbruck 2003
DYEAR=2003
DGENRE=Blues
TTITLE0=Gary Brown and Feelings - Nocturnal Woman
TTITLE1=Gary Brown and Feelings - Ms. Magic
TTITLE2=Lou Weber and Bonneville - Kickin' The Blues
TTITLE3=Gail Anderson and The Rhythm Kings - Lovesick Blues
TTITLE4=Nussbaumer, Weber and Kreil - Just Your Fool
TTITLE5=Olga Wilhelmine - One Good Thing
TTITLE6=Die Templesänger - Pop In, Jazz Up, Rock Out
TTITLE7=Los Seis del Son - Dile A Catalina
TTITLE8=Lou Weber and Bonneville - Edna, South Texas
TTITLE9=Die Templesänger - Celebrate
TTITLE10=Olga Wilhelmine - Gotta Put My Hands On You
TTITLE11=Gail Anderson and The Rhythm Kings - Funny But I Still Love You
TTITLE12=Nussbaumer, Weber and Kreil - Ol' 55
TTITLE13=Lito Fontana and Trombonisti Italiani - Georgia On My Mind
EXTD=Eine Produktion des Stadtmarketing Innsbruck anlässlich des 
EXTD=New-Orleans-Festivals vom 30. Juli bis 3. August 2003 unter Mitwirkung 
EXTD=aller auf dieser Kompilation vertretenen Künstler und 
EXTD=Bands.\n\nZusammenstellung: Markus Lindner\nTontechnische Betreuung: Karl 
EXTD=Ecke, Fly-By-night-Tonstudio
EXTT0=
EXTT1=
EXTT2=
EXTT3=
EXTT4=
EXTT5=
EXTT6=
EXTT7=
EXTT8=
EXTT9=
EXTT10=
EXTT11=
EXTT12=
EXTT13=
PLAYORDER=
